<svg width="167" height="40" viewBox="0 0 167 40" fill="none" xmlns="http://www.w3.org/2000/svg">
<g clip-path="url(#clip0_558_2835)">
<path d="M0.00219727 2.22168C5.44713 2.22168 10.8899 2.22168 16.3304 2.22168C16.5511 2.22168 16.6041 2.27314 16.6019 2.48995C16.5894 3.49588 16.5894 4.50182 16.6019 5.50775C16.6019 5.71689 16.5599 5.7815 16.3337 5.7815C12.5513 5.77383 8.77001 5.7815 4.98762 5.77164C4.78123 5.77164 4.72604 5.81982 4.72604 6.02787C4.7334 8.85294 4.7334 11.6777 4.72604 14.502C4.72604 14.6969 4.77681 14.7517 4.97548 14.7517C8.64271 14.7458 12.3096 14.7458 15.9761 14.7517C16.3171 14.7517 16.2641 14.7352 16.2641 15.0375C16.2641 16.0295 16.2586 17.0205 16.2697 18.0125C16.2697 18.2184 16.2034 18.2545 16.0158 18.2534C12.3486 18.2483 8.68171 18.2483 5.01521 18.2534C4.72935 18.2534 4.72935 18.2534 4.72935 18.5447C4.72935 22.7174 4.72935 26.8904 4.72935 31.0637C4.72935 31.3922 4.75805 31.3528 4.4457 31.3528C2.96453 31.3528 1.48373 31.3506 0.00330036 31.3462L0.00219727 2.22168Z" fill="white"/>
<path d="M97.3035 39.2509C97.2724 39.1308 97.2668 39.0057 97.2869 38.8834C97.307 38.7611 97.3525 38.6442 97.4205 38.5402C98.7817 35.7319 100.14 32.9214 101.496 30.1088C101.524 30.0611 101.538 30.0071 101.538 29.9522C101.538 29.8973 101.524 29.8433 101.496 29.7956C99.289 25.3134 97.0864 20.8302 94.8886 16.3458C94.2381 15.0216 93.5888 13.6974 92.9405 12.3732L92.8666 12.2199C92.936 12.1899 93.0129 12.1811 93.0873 12.1947C94.5906 12.1947 96.0927 12.1947 97.5959 12.1947C97.6646 12.186 97.7342 12.2014 97.7926 12.2382C97.8511 12.275 97.8947 12.3309 97.916 12.3962C99.8939 16.5995 101.875 20.801 103.861 25.0006C103.894 25.0696 103.928 25.1386 103.971 25.2339C104.341 24.4061 104.699 23.6078 105.056 22.8074C106.609 19.3275 108.162 15.8473 109.713 12.3666C109.76 12.2626 109.795 12.1947 109.934 12.1947C111.322 12.2024 112.71 12.1947 114.097 12.1947C114.133 12.1947 114.168 12.1947 114.24 12.2057L101.658 39.252L97.3035 39.2509Z" fill="#FFCD00"/>
<path d="M60.6683 0.550781C60.6683 0.650425 60.6683 0.750069 60.6683 0.850808C60.6683 10.916 60.6683 20.9811 60.6683 31.0463C60.6683 31.3748 60.7146 31.3375 60.3669 31.3375C59.0513 31.3375 57.7357 31.3375 56.4201 31.343C56.2137 31.343 56.1574 31.2959 56.1574 31.0868C56.1641 26.2075 56.1641 21.3282 56.1574 16.449C56.1574 11.2492 56.1574 6.04909 56.1574 0.848619C56.1574 0.750069 56.1453 0.650425 56.1387 0.551876L60.6683 0.550781Z" fill="white"/>
<path d="M142.735 0.550781C142.711 0.655171 142.704 0.762922 142.716 0.869423C142.716 10.8988 142.716 20.9282 142.716 30.9576C142.712 31.0305 142.712 31.1036 142.716 31.1766C142.731 31.3091 142.675 31.3474 142.544 31.3452C142.127 31.3375 141.711 31.3452 141.294 31.3452C140.359 31.3452 139.424 31.3452 138.489 31.3452C138.166 31.3452 138.21 31.3781 138.21 31.0539C138.21 21.645 138.21 12.2362 138.21 2.82727C138.21 2.07063 138.21 1.31508 138.21 0.558446L142.735 0.550781Z" fill="#FFCD00"/>
<path d="M49.9714 0.551374C49.9714 10.7187 49.9714 20.8857 49.9714 31.0523C49.9714 31.3808 50.021 31.337 49.6888 31.337C48.3588 31.337 47.0278 31.337 45.6978 31.337C45.5157 31.337 45.4771 31.2867 45.4771 31.1115C45.4815 20.9799 45.4815 10.8483 45.4771 0.716717C45.4771 0.659777 45.4771 0.607218 45.4837 0.545898L49.9714 0.551374Z" fill="white"/>
<path d="M159.565 22.5969C157.198 22.5969 154.833 22.5969 152.468 22.5969C152.268 22.5969 152.213 22.6473 152.229 22.8433C152.272 23.9636 152.648 25.0464 153.31 25.9546C153.973 26.8629 154.892 27.5559 155.951 27.946C157.121 28.4166 158.389 28.5999 159.646 28.4803C161.7 28.3328 163.669 27.6115 165.326 26.3998C165.428 26.3336 165.552 26.3089 165.673 26.3309C165.813 26.3407 165.76 26.459 165.76 26.5312C165.76 27.4226 165.76 28.315 165.76 29.2063C165.76 29.5556 165.751 29.906 165.76 30.2553C165.77 30.3206 165.756 30.3873 165.721 30.4434C165.686 30.4995 165.631 30.5411 165.568 30.5608C164.564 31.0033 163.511 31.3261 162.431 31.5222C161.025 31.7882 159.593 31.8896 158.164 31.8244C156.181 31.7665 154.244 31.2189 152.529 30.2312C151.269 29.5379 150.183 28.5716 149.352 27.4043C148.521 26.2371 147.966 24.8989 147.729 23.4893C147.414 21.9624 147.469 20.3832 147.888 18.8814C148.308 17.3795 149.081 15.9979 150.143 14.8499C151.672 13.1562 153.769 12.0715 156.044 11.7981C157.898 11.5011 159.8 11.7147 161.54 12.4157C162.687 12.8854 163.715 13.5998 164.552 14.5081C165.389 15.4165 166.014 16.4966 166.383 17.6717C166.894 19.2055 167.074 20.8286 166.913 22.436C166.899 22.6243 166.794 22.5915 166.683 22.5915L159.565 22.5969ZM157.29 19.8934C158.909 19.8934 160.527 19.8934 162.146 19.8934C162.302 19.8934 162.361 19.8638 162.347 19.6908C162.329 19.4066 162.295 19.1237 162.244 18.8433C162.152 18.239 161.939 17.659 161.618 17.137C161.298 16.615 160.876 16.1614 160.377 15.8025C159.835 15.4305 159.225 15.169 158.581 15.0333C157.936 14.8975 157.271 14.8903 156.624 15.0119C155.471 15.1711 154.408 15.7167 153.611 16.5579C152.813 17.3992 152.33 18.4857 152.24 19.6372C152.221 19.8474 152.276 19.8978 152.488 19.8967C154.084 19.889 155.687 19.8934 157.29 19.8934Z" fill="#FFCD00"/>
<path d="M35.6045 28.6568C34.7757 29.431 33.844 30.089 32.8353 30.6124C31.2794 31.4614 29.5234 31.8836 27.7483 31.8355C25.8812 31.8337 24.0842 31.1293 22.7199 29.8645C21.8013 28.9689 21.1652 27.8276 20.8888 26.5796C20.7219 25.8715 20.6404 25.1463 20.646 24.4192C20.646 20.4312 20.646 16.4432 20.646 12.4553C20.646 12.2429 20.6935 12.1837 20.9153 12.1859C22.253 12.1976 23.5903 12.1976 24.9273 12.1859C25.1226 12.1859 25.1613 12.2385 25.1613 12.4224C25.1554 16.325 25.1554 20.2272 25.1613 24.129C25.1266 25.1208 25.4308 26.0951 26.0244 26.8938C26.3338 27.2895 26.7198 27.6199 27.1597 27.8654C27.5996 28.111 28.0846 28.2669 28.5861 28.3239C29.682 28.4762 30.7982 28.3884 31.8563 28.0668C32.9144 27.7452 33.8886 27.1976 34.7105 26.4624C34.8106 26.3858 34.8897 26.2855 34.9406 26.1707C34.9915 26.056 35.0125 25.9304 35.0019 25.8054C34.992 21.3543 35.0019 16.902 34.9908 12.4465C34.9908 12.2418 35.0251 12.1717 35.2546 12.1739C36.5989 12.187 37.9444 12.1826 39.2887 12.1739C39.4454 12.1739 39.4939 12.2056 39.4939 12.371C39.4888 18.6204 39.4888 24.8699 39.4939 31.1194C39.4939 31.2749 39.462 31.3253 39.2953 31.3242C38.1379 31.3161 36.9801 31.3161 35.8219 31.3242C35.6487 31.3242 35.6067 31.2738 35.6089 31.1052C35.6089 30.3179 35.6045 29.5152 35.6045 28.6568Z" fill="white"/>
<path d="M63.5822 20.764C63.4532 20.3925 63.3633 20.0086 63.314 19.6187C63.2009 18.8856 63.1437 18.1451 63.1429 17.4035C63.1328 14.3722 64.0897 11.4155 65.8768 8.95676C67.0233 7.33984 68.4803 5.96341 70.1643 4.90645C71.8482 3.84948 73.726 3.13277 75.6898 2.79744C78.8323 2.1672 82.0932 2.48724 85.0503 3.71614C85.6779 3.98112 86.2851 4.29147 86.867 4.64469C86.8934 4.66708 86.9242 4.68368 86.9575 4.6934C86.9908 4.70311 87.0258 4.70573 87.0602 4.70108C87.0946 4.69643 87.1276 4.6846 87.1571 4.66639C87.1865 4.64818 87.2118 4.62399 87.2312 4.59541C87.6075 4.21326 87.9971 3.84206 88.3823 3.46757C88.4221 3.42925 88.4795 3.36793 88.517 3.3745C88.5854 3.38873 88.5766 3.47414 88.5887 3.53437C89.148 6.13679 89.7072 8.73959 90.2664 11.3427C90.3116 11.5519 90.3536 11.761 90.3955 11.9702C90.4264 12.1268 90.3668 12.1738 90.2079 12.1399C89.0799 11.8953 87.9512 11.6534 86.8217 11.4139C85.0904 11.0438 83.359 10.6733 81.6277 10.3025C81.5703 10.2905 81.4842 10.3025 81.4677 10.2259C81.4511 10.1492 81.525 10.1328 81.5648 10.0945C81.9952 9.67398 82.4213 9.24912 82.8616 8.8385C82.9963 8.71258 82.9808 8.66768 82.8241 8.59979C82.0658 8.27563 81.2704 8.0447 80.4555 7.91214C79.1595 7.72855 77.8412 7.77005 76.5595 8.03478C74.821 8.31028 73.1382 8.86037 71.5752 9.66412C69.6798 10.629 68.0136 11.9838 66.688 13.6383C65.3624 15.2928 64.4078 17.2088 63.8879 19.2584C63.7543 19.7545 63.6826 20.2636 63.5822 20.764Z" fill="#FFCD00"/>
<path d="M69.5122 13.9854C69.3908 14.3697 69.2517 14.7179 69.1612 15.0803C68.7764 16.4909 68.7423 17.973 69.062 19.3994C69.3817 20.8258 70.0456 22.154 70.9967 23.2698C72.5266 25.207 74.7446 26.4913 77.1973 26.8603C78.6583 27.1366 80.1644 27.0684 81.594 26.6611C83.0236 26.2539 84.3368 25.5191 85.4276 24.5159C86.0177 24.0033 86.5441 23.4229 86.9959 22.7869C87.093 22.6467 87.1626 22.6325 87.2895 22.7606C88.5205 24.0104 89.7556 25.2565 90.9946 26.4989C91.0874 26.592 91.0873 26.6467 91.0024 26.742C88.746 29.395 85.6703 31.2352 82.2522 31.9771C79.376 32.5798 76.3889 32.3993 73.6076 31.4547C70.8264 30.5101 68.3544 28.8367 66.4538 26.6117C66.3649 26.509 66.2997 26.3883 66.2629 26.258C65.8458 24.7789 65.6963 23.2381 65.8214 21.7072C66.0084 19.392 66.8619 17.1788 68.2804 15.3311C68.6001 14.9001 68.9497 14.4917 69.3267 14.1091C69.3711 14.0466 69.4372 14.0026 69.5122 13.9854Z" fill="#FFCD00"/>
<path d="M132.854 28.627C132.854 29.2479 132.848 29.8687 132.854 30.4885C132.861 30.5505 132.846 30.6131 132.811 30.6652C132.776 30.7173 132.724 30.7555 132.664 30.7732C131.589 31.2338 130.452 31.5377 129.289 31.6755C128.321 31.8131 127.343 31.8692 126.366 31.843C123.781 31.7835 121.29 30.8677 119.289 29.2413C117.755 28.0612 116.631 26.4349 116.075 24.5898C115.694 23.318 115.587 21.9805 115.763 20.6651C115.939 19.3496 116.393 18.0858 117.095 16.9566C117.829 15.6899 118.827 14.5934 120.023 13.7404C121.218 12.8874 122.584 12.2976 124.027 12.0105C126.864 11.351 129.841 11.6437 132.492 12.8427C132.933 13.0409 133.364 13.2807 133.787 13.5161C133.898 13.5807 133.94 13.6256 133.858 13.7527C133.21 14.7951 132.567 15.8412 131.93 16.8909C131.849 17.0234 131.795 17.0092 131.688 16.9281C130.827 16.2349 129.838 15.7142 128.777 15.3951C127.842 15.1013 126.852 15.019 125.881 15.1541C124.909 15.2892 123.981 15.6383 123.163 16.1759C122.463 16.6496 121.868 17.2599 121.413 17.9695C120.959 18.679 120.655 19.4729 120.52 20.3029C120.191 21.716 120.302 23.1948 120.839 24.5438C121.222 25.5247 121.861 26.3873 122.689 27.044C123.518 27.7006 124.507 28.1278 125.556 28.2821C126.741 28.4923 127.957 28.4564 129.128 28.1767C130.298 27.897 131.397 27.3796 132.356 26.6571C132.391 26.6319 132.422 26.6002 132.459 26.5794C132.679 26.4567 132.848 26.5465 132.848 26.7841C132.852 27.3959 132.854 28.0102 132.854 28.627Z" fill="#FFCD00"/>
</g>
<defs>
<clipPath id="clip0_558_2835">
<rect width="166.959" height="40.0007" fill="white"/>
</clipPath>
</defs>
</svg>
